HIERARCHY
ROOT Hips
{
	OFFSET 0.00000 0.00000 0.00000
	CHANNELS 6 Xposition Yposition Zposition Zrotation Yrotation Xrotation 
	JOINT LHipJoint
	{
		OFFSET 0 0 0
		CHANNELS 3 Zrotation Yrotation Xrotation
		JOINT LeftHip
		{
			OFFSET 1.55020 -1.87941 0.79896
			CHANNELS 3 Zrotation Yrotation Xrotation
			JOINT LeftKnee
			{
				OFFSET 2.65269 -7.28822 0.00000
				CHANNELS 3 Zrotation Yrotation Xrotation
				JOINT LeftAnkle
				{
					OFFSET 2.61200 -7.17641 0.00000
					CHANNELS 3 Zrotation Yrotation Xrotation
					JOINT LeftToe
					{
						OFFSET 0.09338 -0.25656 1.92461
						CHANNELS 3 Zrotation Yrotation Xrotation
						End Site
						{
							OFFSET 0.00000 -0.00000 0.98480
						}
					}
				}
			}
		}
	}
	JOINT RHipJoint
	{
		OFFSET 0 0 0
		CHANNELS 3 Zrotation Yrotation Xrotation
		JOINT RightHip
		{
			OFFSET -1.56866 -1.87941 0.79895
			CHANNELS 3 Zrotation Yrotation Xrotation
			JOINT RightKnee
			{
				OFFSET -2.60199 -7.14892 0.00000
				CHANNELS 3 Zrotation Yrotation Xrotation
				JOINT RightAnkle
				{
					OFFSET -2.62841 -7.22151 0.00000
					CHANNELS 3 Zrotation Yrotation Xrotation
					JOINT RightToe
					{
						OFFSET -0.19532 -0.53663 1.93132
						CHANNELS 3 Zrotation Yrotation Xrotation
						End Site
						{
							OFFSET -0.00000 -0.00000 1.00896
						}
					}
				}
			}
		}
	}
	JOINT lowerback
	{
		OFFSET 0 0 0
		CHANNELS 3 Zrotation Yrotation Xrotation
		JOINT Chest
		{
			OFFSET 0.06381 2.07806 -0.22112
			CHANNELS 3 Zrotation Yrotation Xrotation
			JOINT Chest2
			{
				OFFSET -0.02881 2.08890 0.01825
				CHANNELS 3 Zrotation Yrotation Xrotation
				JOINT lowerneck
				{
					OFFSET 0 0 0
					CHANNELS 3 Zrotation Yrotation Xrotation
					JOINT Neck
					{
						OFFSET 0.02418 1.74325 -0.02023
						CHANNELS 3 Zrotation Yrotation Xrotation
						JOINT Head
						{
							OFFSET -0.01704 1.71677 0.04090
							CHANNELS 3 Zrotation Yrotation Xrotation
							End Site
							{
								OFFSET -0.00946 1.78238 0.01684
							}
						}
					}
				}
				JOINT LeftCollar
				{
					OFFSET 0 0 0
					CHANNELS 3 Zrotation Yrotation Xrotation
					JOINT LeftShoulder
					{
						OFFSET 3.39783 1.34157 0.16610
CHANNELS 3 Zrotation Xrotation Yrotation
						JOINT LeftElbow
						{
OFFSET 0 -5.152180 0.000000
CHANNELS 3 Zrotation Xrotation Yrotation
							JOINT LeftWrist
							{
OFFSET 0 -3.494590 0.000000
CHANNELS 3 Zrotation Xrotation Yrotation
								JOINT lhand
								{
									OFFSET 0 0 0
CHANNELS 3 Zrotation Xrotation Yrotation
									JOINT LFingers
									{
OFFSET 0 -0.512470 0.000000
CHANNELS 3 Zrotation Xrotation Yrotation
										End Site
										{
OFFSET 0 -0.413160 0.000000
										}
									}
								}
								JOINT LThumb
								{
OFFSET 0 0.000000 0.000000
CHANNELS 3 Zrotation Xrotation Yrotation
									End Site
									{
OFFSET 0 -0.419470 0.419470
									}
								}
							}
						}
					}
				}
				JOINT RightCollar
				{
					OFFSET 0 0 0
					CHANNELS 3 Zrotation Yrotation Xrotation
					JOINT RightShoulder
					{
						OFFSET -3.26224 1.05509 0.01188
CHANNELS 3 Zrotation Xrotation Yrotation
						JOINT RightElbow
						{
OFFSET 0 -5.443440 0.000000
CHANNELS 3 Zrotation Xrotation Yrotation
							JOINT RightWrist
							{
OFFSET 0 -3.584030 0.000000
CHANNELS 3 Zrotation Xrotation Yrotation
								JOINT rhand
								{
									OFFSET 0 0 0
CHANNELS 3 Zrotation Xrotation Yrotation
									JOINT RFingers
									{
OFFSET 0 -0.342490 0.000000
CHANNELS 3 Zrotation Xrotation Yrotation
										End Site
										{
OFFSET 0 -0.276120 0.000000
										}
									}
								}
								JOINT RThumb
								{
OFFSET 0 0.000000 0.000000
CHANNELS 3 Zrotation Xrotation Yrotation
									End Site
									{
OFFSET 0 -0.280340 0.280340
									}
								}
							}
						}
					}
				}
			}
		}
	}
}
MOTION
Frames: 7
Frame Time: 0.008333333333333333
-1.928080 17.917696 5.908186 -500.440467 -76.929717 517.085871 0.000000 0.000000 0.000000 -13.695829 -13.948538 -34.361660 4.239534 12.472416 37.424450 0.588450 -2.284336 -13.889227 0.694338 -5.325721 -14.840194 0.000000 0.000000 0.000000 15.755585 17.879093 -13.192210 -18.215930 -19.914979 84.776336 -1.380628 -1.338956 -22.733801 -0.676456 5.254953 -14.638146 6.115338 0.042337 21.943285 0.450103 0.773888 7.036686 -3.175038 0.152295 -4.439622 1.277478 2.123543 2.568281 -7.020246 1.890996 -13.223541 -2.442051 1.151365 -4.279369 0.000000 0.000000 0.000000 -6.044292 36.523198 61.729087 5.927937 -10.141838 0.526627 12.070139 62.335048 -12.132595 0.000000 0.000000 0.000000 -7.125000 0.000000 0.000000 -13.543584 41.980629 -1.030652 0.000000 0.000000 0.000000 -17.980901 19.455878 -18.144033 -71.344016 -58.643097 -43.917059 6.356184 -69.849060 23.827242 0.000000 0.000000 0.000000 7.125000 0.000000 0.000000 34.937226 50.312537 -5.124158
-1.941526 17.899361 5.906643 -496.523227 -76.979412 514.028439 0.000000 0.000000 0.000000 -12.453718 -15.233759 -35.259369 4.382272 12.652079 38.080124 0.624283 -2.043571 -14.366008 0.579696 -4.871542 -13.543361 0.000000 0.000000 0.000000 16.722837 17.323951 -10.050758 -15.544681 -19.491547 76.858608 -1.398576 -3.297304 -23.751908 -0.661087 5.200166 -14.480255 7.045435 -0.002976 21.380324 0.727978 0.917345 6.819935 -3.433412 0.232335 -4.351336 1.456844 2.264018 2.379751 -7.468815 2.047403 -13.107490 -2.611716 1.238078 -4.196338 0.000000 0.000000 0.000000 -6.029396 37.677652 69.314236 5.784640 -9.902370 0.501594 10.765315 66.779719 -11.376927 0.000000 0.000000 0.000000 -7.125000 0.000000 0.000000 -14.480662 41.114800 -1.424185 0.000000 0.000000 0.000000 -18.119483 20.053386 -18.553830 -70.725742 -58.548482 -43.389382 7.770915 -70.922034 23.557192 0.000000 0.000000 0.000000 7.125000 0.000000 0.000000 35.988795 49.866626 -4.880725
-1.955662 17.858288 5.902914 -493.223392 -76.966060 511.527217 0.000000 0.000000 0.000000 -11.341972 -16.341436 -36.347788 4.611899 12.931708 39.115420 0.688284 -1.990027 -15.116906 0.458107 -4.334262 -12.020213 0.000000 0.000000 0.000000 17.516375 16.890414 -7.001217 -12.929915 -18.715237 68.870132 -1.321526 -5.698554 -24.479535 -0.439367 4.218323 -11.697020 7.850254 -0.015167 20.743041 0.959193 1.060481 6.589638 -3.667150 0.312732 -4.237599 1.654737 2.435532 2.269922 -7.864115 2.251642 -13.053418 -2.771662 1.347231 -4.142348 0.000000 0.000000 0.000000 -5.951119 38.935132 74.412700 5.770290 -9.878376 0.499052 9.774337 68.340576 -10.770339 0.000000 0.000000 0.000000 -7.125000 0.000000 0.000000 -15.175965 40.433477 -1.757307 0.000000 0.000000 0.000000 -18.230211 20.728039 -18.911514 -70.498266 -58.513043 -43.195329 9.024437 -71.775741 23.270124 0.000000 0.000000 0.000000 7.125000 0.000000 0.000000 36.877223 49.436356 -4.599151
-1.962075 17.792784 5.895808 -490.556172 -76.895380 509.586324 0.000000 0.000000 0.000000 -10.339670 -17.223716 -37.574982 4.885787 13.252027 40.322876 0.768066 -2.100461 -15.972117 0.421013 -4.164555 -11.539993 0.000000 0.000000 0.000000 18.149481 16.662883 -4.166082 -10.477309 -17.616151 61.004681 -1.453507 -6.210128 -25.751831 -0.694855 5.248075 -14.634995 8.497017 -0.061533 20.086815 1.104303 1.120983 6.304170 -3.883451 0.350770 -4.183727 1.998687 2.687243 2.545900 -8.236085 2.565601 -13.261358 -2.963743 1.515859 -4.223425 0.000000 0.000000 0.000000 -5.841350 40.211775 78.342945 5.819576 -9.960847 0.507582 9.056018 68.301544 -10.728713 0.000000 0.000000 0.000000 -7.125000 0.000000 0.000000 -15.778012 40.330733 -1.869444 0.000000 0.000000 0.000000 -18.327996 21.462612 -18.993793 -70.671061 -58.540065 -43.342680 9.757144 -72.324318 23.191381 0.000000 0.000000 0.000000 7.125000 0.000000 0.000000 37.449896 49.259104 -4.510546
-1.953296 17.708743 5.881530 -489.044376 -76.818311 508.674781 0.000000 0.000000 0.000000 -9.576305 -17.802225 -38.832710 5.159882 13.559768 41.505307 0.838900 -2.364015 -16.665514 0.422633 -4.172351 -11.562034 0.000000 0.000000 0.000000 18.519263 16.630499 -1.499934 -8.267943 -16.252455 53.427124 -1.589762 -5.531266 -26.367230 -0.839210 5.843621 -16.331352 8.841544 -0.086717 19.559377 1.152059 1.158472 5.977179 -4.030042 0.371759 -4.250613 2.344691 2.975126 3.028630 -8.497479 2.938925 -13.606467 -3.132085 1.715136 -4.377955 0.000000 0.000000 0.000000 -5.552057 41.399469 81.851483 5.889740 -10.078053 0.519780 8.450701 67.877453 -11.138494 0.000000 0.000000 0.000000 -7.125000 0.000000 0.000000 -16.403127 40.675204 -1.802086 0.000000 0.000000 0.000000 -18.319635 22.165828 -19.004203 -71.131954 -58.610732 -43.736021 10.109665 -72.719928 23.175738 0.000000 0.000000 0.000000 7.125000 0.000000 0.000000 37.738231 49.192342 -4.486216
-1.941257 17.636636 5.862255 -489.350185 -76.803847 509.390571 0.000000 0.000000 0.000000 -9.305664 -18.021399 -39.865467 5.390970 13.810026 42.483705 0.892205 -2.711490 -17.140074 0.425193 -4.184919 -11.597512 0.000000 0.000000 0.000000 18.494411 16.837874 0.869222 -6.370519 -14.719138 46.342896 -1.612573 -3.873139 -25.673258 -1.062113 6.513304 -18.295028 8.835432 0.068158 19.181008 1.092168 1.356291 5.749116 -4.130116 0.472260 -4.274405 2.446353 3.174919 3.089759 -8.553960 3.206133 -13.756966 -3.181002 1.849604 -4.415732 0.000000 0.000000 0.000000 -4.662442 42.230220 84.466385 5.967018 -10.207064 0.533416 8.047567 67.825412 -11.691175 0.000000 0.000000 0.000000 -7.125000 0.000000 0.000000 -16.899523 41.173126 -1.646427 0.000000 0.000000 0.000000 -17.933487 22.677028 -19.523479 -71.864866 -58.719034 -44.362183 10.297784 -72.931469 23.087741 0.000000 0.000000 0.000000 7.125000 0.000000 0.000000 37.839496 49.091909 -4.396550
-1.933592 17.594577 5.841602 -491.541120 -76.798984 511.722935 0.000000 0.000000 0.000000 -9.603010 -17.812753 -40.432401 5.530441 13.957259 43.066611 0.921924 -3.056297 -17.374254 0.412766 -4.123568 -11.424620 0.000000 0.000000 0.000000 18.147782 17.221934 2.857975 -4.827552 -13.138256 39.972260 -1.553220 -1.289000 -24.107403 -1.102555 6.636505 -18.655691 8.409814 0.307133 18.973349 0.899121 1.583207 5.612607 -4.144515 0.587938 -4.295852 2.543342 3.372586 3.007201 -8.572454 3.483647 -13.780249 -3.212627 1.982644 -4.389800 0.000000 0.000000 0.000000 -3.500292 42.786043 86.181271 6.051523 -10.348065 0.548528 8.040233 68.044110 -12.177742 0.000000 0.000000 0.000000 -7.125000 0.000000 0.000000 -17.043753 41.641631 -1.459585 0.000000 0.000000 0.000000 -17.293630 22.942582 -20.133587 -72.830175 -58.854768 -45.187874 10.255762 -72.812775 23.051275 0.000000 0.000000 0.000000 7.125000 0.000000 0.000000 37.780140 49.068629 -4.363062
